<svg width="50" height="50" viewBox="0 0 50 50" fill="none" xmlns="http://www.w3.org/2000/svg">
<path fill-rule="evenodd" clip-rule="evenodd" d="M23.4625 0.0168476C23.307 0.0321822 22.8298 0.0779036 22.4022 0.118466C20.3635 0.312021 17.9934 0.872829 16.0756 1.61546C12.7113 2.91819 9.8463 4.78237 7.30675 7.32113C3.19892 11.4277 0.767171 16.5106 0.0869379 22.4118C-0.0291322 23.4186 -0.0289203 26.566 0.0872205 27.5705C0.770493 33.4785 3.19892 38.5546 7.30675 42.6612C12.965 48.3176 20.8273 50.9068 28.7288 49.7157C30.2015 49.4937 32.0766 48.9061 33.1114 48.5124C33.1114 48.3315 33.1114 40.1885 33.1114 38.7259V28.9485H24.4736H15.8357L18.9215 31.0155L22.0073 33.0824L22.0103 36.5976L22.0134 40.1127L16.5174 40.0956L11.0214 40.0784V25.3092V10.5399L16.5169 10.5218L22.0123 10.5037L22.0306 15.0091L22.0487 19.5145H27.5624H33.0761L33.094 10.4188L33.112 1.32311L32.4225 1.10765C31.0181 0.668744 29.2864 0.309477 27.6331 0.113944C26.9816 0.0368468 23.9709 -0.0331841 23.4625 0.0168476ZM44.1388 24.9912C44.1388 33.8138 44.1495 41.0324 44.1628 41.0324C44.2125 41.0324 45.126 39.8392 45.5693 39.1951C49.1447 33.9998 50.6337 27.6986 49.7524 21.4932C49.2062 17.6472 47.7821 14.0026 45.5693 10.7872C45.126 10.1431 44.2125 8.94991 44.1628 8.94991C44.1495 8.94991 44.1388 16.1685 44.1388 24.9912Z" fill="#FF5500"/>
</svg>
